<svg id="SvgjsSvg1001" opacity="0.2" width="288" height="288" xmlns="http://www.w3.org/2000/svg" version="1.1" xmlns:xlink="http://www.w3.org/1999/xlink" xmlns:svgjs="http://svgjs.com/svgjs"><defs id="SvgjsDefs1002"></defs><g id="SvgjsG1008" transform="matrix(1,0,0,1,0,0)"><svg xmlns="http://www.w3.org/2000/svg" width="288" height="288" version="1.2" viewBox="0 0 1152 1152"><path d="M798.5 328.5l-.7-5.4c4.1-.5 7.8-2.6 10.3-5.9 2.5-3.2 3.6-7.3 3.1-11.4-.6-4.1-2.7-7.7-6-10.2-3.2-2.5-7.3-3.6-11.4-3.1l-.7-5.4c5.6-.7 11 .7 15.5 4.1 4.4 3.4 7.2 8.4 8 13.9.7 5.5-.8 11-4.2 15.5-3.4 4.4-8.3 7.2-13.9 7.9zM282.3 903.7c-2.7 0-5.4-.4-8.1-1.1-7.7-2.2-14.1-7.2-17.9-14.2l6.8-3.8c2.8 5.2 7.5 8.9 13.2 10.5 5.6 1.6 11.6.9 16.7-2 10.6-5.9 14.5-19.3 8.5-29.9l6.8-3.8c8 14.3 2.9 32.5-11.5 40.5-4.5 2.5-9.4 3.8-14.5 3.8zM973.5 722.2c-12.4-11.3-13.3-30.5-2-42.9 11.2-12.4 30.5-13.3 42.9-2.1l-5.4 5.9c-9.1-8.3-23.3-7.6-31.7 1.5-8.3 9.2-7.6 23.4 1.6 31.7zM323 78.9c-3.9 0-7.6-1.4-10.6-4-3.2-2.9-5.1-6.8-5.4-11.1-.2-4.3 1.2-8.4 4-11.6 2.9-3.3 6.8-5.2 11.1-5.4l.3 4.2c-3.2.1-6.1 1.6-8.2 3.9-2.1 2.4-3.2 5.5-3 8.6.2 3.2 1.6 6.1 4 8.2 2.4 2.1 5.4 3.2 8.6 3l.2 4.2q-.5 0-1 0zM1109 620.2l-3.3-4.5c3.4-2.5 5.7-6.2 6.3-10.4.7-4.2-.3-8.5-2.8-11.9-5.2-7.1-15.2-8.7-22.3-3.5l-3.3-4.5c9.6-7 23.1-4.9 30.1 4.7 3.4 4.6 4.8 10.3 3.9 16-.9 5.7-4 10.7-8.6 14.1zM647.1 731.9l-4.6-7.1c11.1-7.2 14.4-22.1 7.2-33.2-7.2-11.2-22.1-14.4-33.2-7.2l-4.6-7.2c15.1-9.6 35.2-5.3 44.9 9.8 9.7 15.1 5.3 35.2-9.7 44.9zM42.5 140.6c-5.5 0-10.9-2.7-14.1-7.7l3.7-2.3c1.7 2.7 4.4 4.7 7.6 5.4 3.2.7 6.5.1 9.3-1.6 5.7-3.6 7.4-11.2 3.8-16.9l3.7-2.3c4.8 7.8 2.5 18-5.2 22.9-2.8 1.7-5.8 2.5-8.8 2.5zM1067.4 233.7c-3.6-4.5-5.2-10.1-4.5-15.8.6-5.7 3.4-10.8 7.9-14.4 9.3-7.4 22.8-5.9 30.2 3.3l-4.4 3.5c-5.4-6.8-15.4-7.9-22.3-2.4-3.3 2.6-5.4 6.4-5.9 10.6-.4 4.2.8 8.4 3.4 11.7zM480.5 719.5c-14.5-11.9-16.5-33.3-4.6-47.7 5.8-7 13.9-11.4 22.9-12.2 9.1-.9 17.9 1.8 24.9 7.6l-5.7 6.8c-5.1-4.3-11.7-6.3-18.3-5.6-6.7.6-12.7 3.8-17 9-8.8 10.7-7.3 26.5 3.4 35.3z" fill="#f97316" class="color000 svgShape"></path><path fill-rule="evenodd" d="M965.7 75.8c4.7 9.1 1 20.2-8.1 24.8-2.7 1.4-5.5 2-8.3 2-6.8 0-13.3-3.7-16.6-10.1-4.6-9.1-.9-20.3 8.2-24.9 2.7-1.3 5.5-2 8.3-2 6.8 0 13.3 3.7 16.5 10.2zm-22.2-3.1c-6.3 3.2-8.9 10.9-5.7 17.2 2.2 4.3 6.6 7 11.5 7q3 0 5.7-1.4c3.1-1.5 5.3-4.2 6.4-7.4 1.1-3.2.8-6.7-.7-9.8-2.2-4.3-6.6-7-11.5-7q-3 0-5.7 1.4zM221.3 426c8.2.8 14.1 8.2 13.2 16.3-.8 7.6-7.2 13.3-14.7 13.3q-.8 0-1.6-.1c-8.2-.8-14.1-8.1-13.2-16.3.8-7.6 7.2-13.3 14.7-13.3q.8 0 1.6.1zm-11.8 13.7c-.6 5.6 3.5 10.7 9.2 11.3q.5 0 1.1 0c5.2 0 9.6-3.9 10.2-9.2.3-2.7-.5-5.4-2.3-7.5-1.7-2.1-4.1-3.5-6.9-3.8q-.5 0-1.1 0c-5.2 0-9.6 3.9-10.2 9.2zM1047.4 359c2.4 8.2-2.3 16.9-10.6 19.3q-2.2.6-4.3.6c-6.8 0-13-4.4-15-11.2-2.3-8.3 2.4-16.9 10.6-19.3q2.2-.6 4.4-.6c6.7 0 12.9 4.4 14.9 11.2zm-17.9-6c-5.7 1.7-9 7.6-7.3 13.3 1.3 4.6 5.5 7.8 10.3 7.8q1.5 0 3-.4c5.7-1.7 9-7.7 7.3-13.4-1.3-4.5-5.6-7.7-10.3-7.7q-1.5 0-3 .4zM502.2 55c11.7 5.3 16.9 19.2 11.6 30.9-3.9 8.5-12.4 13.6-21.3 13.6-3.2 0-6.5-.7-9.6-2.1-11.7-5.3-16.9-19.1-11.5-30.8 3.9-8.6 12.3-13.7 21.2-13.7 3.2 0 6.5.7 9.6 2.1zm-24.3 14.6c-3.7 8-.1 17.6 8 21.3 2.1.9 4.3 1.4 6.6 1.4 6.3 0 12.1-3.7 14.7-9.4 1.8-3.9 1.9-8.3.4-12.3-1.5-4.1-4.5-7.3-8.4-9-2.1-1-4.3-1.5-6.6-1.5-6.3 0-12.1 3.7-14.7 9.5zM804.6 542.3c9.3 1.6 15.5 10.5 13.9 19.8-1.4 8.3-8.6 14.2-16.8 14.2q-1.5 0-2.9-.3c-9.4-1.6-15.6-10.5-14-19.8 1.5-8.3 8.7-14.1 16.9-14.1q1.4-.1 2.9.2zm-14.6 14.8c-1.1 6.5 3.2 12.6 9.7 13.7q1 .2 2 .2c5.7 0 10.6-4.1 11.6-9.8 1.1-6.5-3.2-12.6-9.6-13.7q-1-.2-2-.2c-5.8 0-10.7 4.2-11.7 9.8zM222 570.6c8.7 6.9 10.3 19.6 3.4 28.3-4 5.1-9.9 7.8-15.9 7.8-4.3 0-8.7-1.4-12.4-4.3-8.8-6.9-10.3-19.6-3.4-28.3 3.9-5.1 9.9-7.8 15.8-7.8 4.4 0 8.8 1.4 12.5 4.3zm-23.4 7.3c-4.8 6-3.7 14.8 2.3 19.6 2.5 1.9 5.5 2.9 8.6 2.9 4.3 0 8.3-1.9 11-5.3 2.3-2.9 3.3-6.6 2.9-10.3-.5-3.7-2.3-7-5.3-9.3-2.4-1.9-5.4-2.9-8.6-2.9-4.3 0-8.3 1.9-10.9 5.3zM89.9 1046.4c4.7 6.2 3.5 15-2.7 19.7-2.5 1.9-5.5 2.9-8.5 2.9-4.2 0-8.4-1.9-11.2-5.6-4.7-6.2-3.5-15 2.7-19.7 2.6-1.9 5.6-2.8 8.5-2.8 4.3 0 8.5 1.9 11.2 5.5zm-17.1.8c-2 1.6-3.4 3.8-3.7 6.4-.4 2.6.3 5.1 1.9 7.2 1.8 2.4 4.7 3.8 7.7 3.8 2.2 0 4.2-.6 5.9-1.9 2.1-1.6 3.4-3.9 3.8-6.5.3-2.5-.4-5.1-1.9-7.2-1.9-2.4-4.7-3.8-7.8-3.8-2.1 0-4.1.7-5.9 2zM572.9 282.9c4.8 13.3-2 27.9-15.2 32.7-2.9 1-5.8 1.5-8.7 1.5-10.4 0-20.2-6.4-24-16.7-4.8-13.2 2-27.8 15.2-32.7 2.9-1 5.9-1.5 8.8-1.5 10.4 0 20.1 6.4 23.9 16.7zm-30-7.8c-4.4 1.6-7.9 4.9-9.9 9.1-2 4.3-2.2 9.1-.6 13.5 2.5 6.9 9.2 11.6 16.6 11.6q3 0 6-1.1c9.1-3.3 13.8-13.4 10.5-22.6-2.5-6.9-9.2-11.5-16.5-11.5q-3.1 0-6.1 1zM560.9 1007.5c7.2 3.5 10.1 12.2 6.6 19.4-2.5 5.1-7.7 8.1-13 8.1-2.2 0-4.4-.5-6.4-1.5-7.2-3.5-10.2-12.2-6.7-19.4 2.6-5.2 7.7-8.1 13.1-8.1 2.1 0 4.3.4 6.4 1.5zm-15.4 8.6c-2.5 4.9-.4 10.9 4.5 13.4q2.1 1 4.5 1c3.8 0 7.3-2.1 9-5.6 1.2-2.4 1.3-5.1.5-7.6-.9-2.6-2.7-4.6-5.1-5.8q-2.1-1.1-4.4-1.1c-3.9 0-7.3 2.2-9 5.7zM447.4 224l-39 3.6-26.3-29.1 39.1-3.6zm-52.9-20.6l16.3 18 24.1-2.2-16.3-18zM81.2 794.7l-6.6 38.6-26.9-28.4 6.6-38.7zm-27.2 8.2l16.7 17.7 4.1-23.9-16.6-17.7zM988.6 1037.4l10.7 57.3-52.2-25.9-10.7-57.2zm-33.6 25.4l32.3 16-6.6-35.4-32.3-16zM243.7 191.4l9.1 28.9-28.5-10.1-9.1-28.8zm-15.7 15.2l17.6 6.2-5.6-17.8-17.7-6.2zM570.8 820l-25.1 24-4.1-34.5 25.1-23.9zm-23.6-8.6l2.5 21.4 15.5-14.8-2.5-21.4zM362.4 580.8l4.3 31.1-27.5-15.2-4.3-31.2zm-18.8 12.9l17 9.4-2.6-19.2-17.1-9.5zM406.8 1086.8l-28.8 5.5 12.8-26.4 28.8-5.5zm-12.9-16.8l-7.9 16.3 17.8-3.5 8-16.3zM587.6 500.5l-58.5 3.3 32.5-48.8 58.5-3.3zm-21.1-36.8l-20.1 30.2 36.2-2 20.1-30.2zM173.5 73.4l-8.9 54.7-38.4-39.9 8.9-54.7zm-38.2 12l23.7 24.7 5.5-33.9-23.7-24.6z" fill="#f97316" class="color000 svgShape"></path><path d="M71.6 287.7q-.8 0-1.7-.4c-2-.9-2.9-3.4-2-5.4 2.3-4.8 6.2-8.3 11-9.8 4.9-1.5 10.1-.9 14.6 1.8 2.5 1.5 5.4 1.8 8 1 2.6-.8 4.8-2.7 6-5.4 2.2-4.7 6.2-8.2 11-9.7 4.9-1.5 10.1-.9 14.6 1.8 2 1.1 2.6 3.7 1.5 5.6-1.2 2-3.7 2.6-5.7 1.5-2.5-1.5-5.3-1.9-7.9-1.1-2.7.8-4.8 2.8-6.1 5.4-2.2 4.8-6.1 8.2-11 9.8-4.8 1.5-10 .8-14.5-1.8-2.6-1.5-5.4-1.9-8-1.1-2.7.9-4.8 2.8-6 5.4-.7 1.5-2.2 2.4-3.8 2.4zM876.5 463.5q0 0-.1 0c-1.5-.1-2.6-1.3-2.6-2.8.1-1.9-.6-3.6-1.8-4.9-1.3-1.3-3.1-1.9-5-1.8-3.4.2-6.6-1-9-3.3-2.4-2.3-3.6-5.5-3.5-8.9.1-1.9-.6-3.7-1.9-4.9-1.3-1.3-3-1.9-4.9-1.8-1.5 0-2.8-1.1-2.8-2.5-.1-1.5 1-2.8 2.5-2.9 3.4-.1 6.6 1 9 3.3 2.4 2.4 3.6 5.5 3.5 9-.1 1.9.6 3.6 1.8 4.9 1.3 1.2 3.1 1.9 5 1.8 3.5-.2 6.6.9 9 3.3 2.4 2.3 3.6 5.5 3.5 8.9-.1 1.4-1.3 2.6-2.7 2.6zM818.8 975.9c-1.4 0-2.4-1.1-2.5-2.4 0-1.4 1.1-2.5 2.4-2.5 1.8 0 3.3-.7 4.4-1.9 1.1-1.2 1.6-2.9 1.4-4.6-.4-3.1.6-6 2.6-8.3 2-2.2 4.8-3.5 7.9-3.6 1.7 0 3.3-.7 4.3-1.9 1.1-1.2 1.6-2.8 1.4-4.5-.1-1.4.9-2.6 2.2-2.7 1.3-.2 2.5.8 2.7 2.1.3 3.1-.6 6.1-2.6 8.3-2 2.3-4.8 3.6-7.9 3.6-1.8 0-3.3.7-4.4 1.9-1.1 1.3-1.6 2.9-1.4 4.6.3 3.1-.6 6-2.6 8.3-2 2.3-4.8 3.5-7.9 3.6q0 0 0 0zM193.7 768.7c-.9 0-1.7-.3-2.4-.8-3.9-3.1-6.1-7.4-6.4-12.2-.3-4.7 1.5-9.2 4.9-12.7 1.9-2 2.9-4.4 2.7-7-.2-2.6-1.4-4.9-3.5-6.6-3.8-3.1-6.1-7.4-6.4-12.2-.2-4.7 1.5-9.2 4.9-12.7 1.5-1.6 3.9-1.6 5.4-.1 1.5 1.5 1.5 3.9.1 5.4-1.9 1.9-2.9 4.4-2.7 7 .1 2.5 1.4 4.9 3.5 6.6 3.8 3.1 6 7.4 6.3 12.1.3 4.8-1.4 9.3-4.8 12.8-2 2-2.9 4.4-2.8 7 .2 2.6 1.4 4.9 3.6 6.6 1.6 1.4 1.9 3.8.5 5.4-.7.9-1.8 1.4-2.9 1.4zM235 1039c-4.5 0-8.8-1.5-12.4-4.4-4.3-3.5-6.8-8.6-7.2-14.3-.2-3.2-1.6-6-3.9-7.9-2.3-2-5.4-2.7-8.6-2.3-5.7.9-11.2-.5-15.5-4.1-4.4-3.5-6.9-8.6-7.2-14.3-.2-2.5 1.7-4.6 4.2-4.8 2.5-.1 4.6 1.8 4.7 4.3.2 3.2 1.6 6 3.9 7.9 2.4 1.9 5.4 2.7 8.6 2.2 5.7-.9 11.2.6 15.6 4.1 4.3 3.5 6.9 8.6 7.2 14.4.2 3.2 1.6 6 3.9 7.9 2.4 1.9 5.4 2.7 8.6 2.2 2.4-.4 4.7 1.3 5.1 3.7.4 2.5-1.3 4.8-3.8 5.2q-1.6.2-3.2.2zM48.4 426.5q-.3 0-.5 0c-1.7 0-3-1.4-3-3.1.1-1.7 1.5-3 3.2-2.9 2.2.1 4.1-.7 5.5-2.2 1.5-1.5 2.2-3.5 2-5.6-.2-4 1.1-7.6 3.8-10.3 2.6-2.7 6.2-4.1 10.1-4 2.2 0 4.1-.7 5.5-2.2 1.5-1.4 2.2-3.5 2-5.6-.1-1.7 1.2-3.1 2.9-3.2 1.7-.2 3.1 1.1 3.2 2.8.2 3.9-1.1 7.5-3.7 10.3-2.6 2.7-6.3 4.1-10.1 4-2.2-.1-4.2.7-5.6 2.1-1.4 1.5-2.1 3.5-2 5.7.3 3.9-1.1 7.5-3.7 10.2-2.5 2.6-5.9 4-9.6 4zM417.5 455.1c-2.4 0-4.7-.6-6.9-1.8-3.5-2-6-5.3-6.9-9.4-.5-2.2-1.9-4-3.8-5.1-1.9-1.1-4.2-1.2-6.4-.5-3.9 1.4-8.1 1-11.6-1-3.5-1.9-6-5.2-7-9.3-.4-1.7.7-3.5 2.5-3.9 1.7-.4 3.5.7 3.9 2.4.5 2.3 1.8 4.1 3.7 5.2 2 1 4.2 1.2 6.4.4 4-1.3 8.1-.9 11.6 1 3.6 2 6.1 5.3 7 9.4.5 2.2 1.9 4 3.8 5.1 1.9 1.1 4.2 1.2 6.4.5 1.7-.6 3.5.3 4.1 2 .6 1.7-.3 3.6-2 4.2q-2.4.8-4.8.8zM77.2 599.5c-1 0-2-.4-2.8-1.2-3.5-3.6-5.3-8.2-5-13.1.2-4.8 2.6-9.3 6.5-12.4 2.1-1.8 3.4-4.2 3.6-6.8.1-2.7-.9-5.2-2.8-7.2-3.6-3.6-5.4-8.3-5.1-13.2.3-4.8 2.6-9.2 6.5-12.4 1.7-1.4 4.2-1.1 5.5.6 1.4 1.7 1.1 4.1-.5 5.5-2.2 1.8-3.5 4.2-3.6 6.8-.2 2.6.8 5.2 2.8 7.2 3.5 3.6 5.3 8.2 5 13.1-.3 4.9-2.6 9.3-6.5 12.5-2.2 1.7-3.5 4.1-3.6 6.8-.2 2.6.8 5.2 2.8 7.2 1.5 1.5 1.5 4-.1 5.5-.7.7-1.7 1.1-2.7 1.1zM648.7 207.7c-2 0-4-.4-6-1.1-1.9-.7-2.9-2.9-2.2-4.9.7-1.9 2.9-2.9 4.8-2.2 2.6.9 5.2.8 7.4-.4 2.3-1.1 3.9-3.2 4.6-5.8 1.2-4.7 4.2-8.4 8.3-10.6 4.2-2.2 9-2.4 13.5-.8 2.5 1 5.1.8 7.4-.3 2.2-1.2 3.9-3.3 4.5-5.9.6-2 2.6-3.2 4.6-2.7 2.1.6 3.2 2.6 2.7 4.6-1.2 4.7-4.2 8.5-8.3 10.6-4.2 2.2-9 2.5-13.5.8-2.5-.9-5.1-.8-7.4.4-2.2 1.1-3.9 3.2-4.5 5.8-1.3 4.7-4.3 8.5-8.4 10.6-2.4 1.2-4.9 1.9-7.5 1.9zM855.5 650.2c-.5 0-1.1-.2-1.5-.6l-14.5-13.3c-.9-.8-1-2.2-.2-3.1.9-1 2.3-1 3.2-.2l14.5 13.3c.9.9 1 2.3.1 3.2-.4.5-1 .7-1.6.7zM380.4 756.4c-.7 0-1.3-.3-1.8-.8l-13.7-15.6c-.9-.9-.8-2.4.2-3.3 1-.8 2.4-.7 3.3.2l13.8 15.6c.8 1 .7 2.5-.2 3.3-.5.4-1.1.6-1.6.6zM283.7 323.5c-1.2 0-2.4-.9-2.7-2.2-.3-1.5.6-3 2.1-3.3l24.1-5.6c1.5-.3 3 .6 3.4 2.1.3 1.5-.6 3-2.1 3.4l-24.1 5.5q-.3.1-.7.1zM784.1 111.1c-1.2 0-2.3-.8-2.6-2-.3-1.5.5-2.9 2-3.2l22.8-5.5c1.4-.4 2.8.5 3.2 1.9.3 1.5-.6 2.9-2 3.2l-22.8 5.5q-.3.1-.6.1zM1087.3 1000.9c-1 0-2-.7-2.3-1.9l-5-20.9c-.3-1.3.5-2.6 1.8-2.9 1.3-.3 2.6.5 2.9 1.8l5 20.9c.3 1.3-.5 2.6-1.8 2.9q-.3.1-.6.1zM694.2 1024.6c-.9 0-1.8-.5-2.2-1.4l-8.5-19c-.5-1.2.1-2.6 1.2-3.2 1.2-.5 2.6.1 3.1 1.2l8.5 19.1c.5 1.2 0 2.6-1.2 3.1q-.5.2-.9.2zM684.9 875.9c-2.1 0-3.8-1.6-3.9-3.7-.2-2.2 1.5-4.1 3.7-4.2l34.7-2c2.2-.1 4.1 1.5 4.2 3.7.1 2.1-1.5 4-3.7 4.1l-34.8 2.1q-.1 0-.2 0zM457.1 923.3c-.9 0-1.7-.6-2-1.5l-5.2-17.7c-.3-1.1.3-2.3 1.4-2.6 1.1-.4 2.3.3 2.6 1.4l5.2 17.7c.3 1.1-.3 2.3-1.4 2.6q-.3.1-.6.1zM1107.9 797.8q-.2 0-.4 0l-30.3-3.6c-1.9-.3-3.2-2-3-3.9.2-1.9 1.9-3.2 3.8-3l30.3 3.6c1.9.3 3.3 2 3 3.9-.2 1.7-1.7 3-3.4 3zM958.1 561.5l-6.4-6.3 32.1-32.3 32.3 32.1-6.4 6.3-25.9-25.7zM819.3 813.5l-5.8-3.3 13.4-23.5-23.4-13.4 3.3-5.8 29.2 16.8zM632.5 1126.3l-17.5-24.3 4.8-3.5 14 19.6 19.6-14 3.4 4.8zM930.6 240.3l-32-6 6.1-32 6.3 1.2-4.9 25.6 25.7 4.9zM664.8 73.2l-31.2-26.2 5.1-6.1 25.1 21 21-25.1 6.2 5.2zM690.9 404.7l-4-22.9-22.9 4-1-5.6 28.6-5 4.9 28.5zM1093.3 86.7l-25-19.8 3.9-4.9 20 15.9 15.9-20.1 5 3.9zM822.5 1110.3l-12.2-22.8-22.8 12.1-3-5.6 28.4-15.1 15.2 28.4zM964 859.7l-31.3-31 6.1-6.2 25.1 24.9 24.9-25.1 6.2 6.1z" fill="#f97316" class="color000 svgShape"></path></svg></g></svg>